# xmcd CD database file generated by Grip 2.95
# 
# Track frame offsets:
#       182
#       26965
#       47792
#       62672
#       83977
#       108477
#       121477
#       141530
#       160557
#       191475
#       212325
# 
# Disc length: 3078 seconds
# 
# Revision: 3
# Processed by: cddbd v1.4PL0 Copyright (c) Steve Scherf et al.
# Submitted via: Grip 2.95
# 
DISCID=9b0c040b
DTITLE=Jeff Lang - Crowd in Every Face, a
DYEAR=1900
DGENRE=
TTITLE0=No Trouble No More
TTITLE1=Native Dog Creek
TTITLE2=Charlies Pool
TTITLE3=Throw it All
TTITLE4=Burn that Bridge
TTITLE5=Frightened Fool
TTITLE6=Last Harbour
TTITLE7=I Feel So Good
TTITLE8=I Still See You
TTITLE9=See that My Grave is Kept Clean
TTITLE10=7th of November
EXTD=
EXTT0=
EXTT1=
EXTT2=
EXTT3=
EXTT4=
EXTT5=
EXTT6=
EXTT7=
EXTT8=
EXTT9=
EXTT10=
PLAYORDER=
